# xmcd
#
# Track frame offsets:
#	150
#	17695
#	20912
#	41152
#	60710
#	81635
#	115732
#	129887
#	149067
#	174765
#	194262
#	208535
#	223740
#	240382
#	257697
#
# Disc length: 3628 seconds
#
# Revision: 1
# Processed by: cddbd v1.5PL3 Copyright (c) Steve Scherf et al.
# Submitted via: CDex 1.50Beta5
#
DISCID=da0e2a0f
DTITLE=Saint Etienne - Fairy Tales from Saint Etienne
DYEAR=1995
DGENRE=ROCK
TTITLE0=Pale Movie
TTITLE1=This Is Radio Etienne
TTITLE2=Only Love Can Break Your Heart
TTITLE3=Nothing Can Stop Us
TTITLE4=Mario's Cafe
TTITLE5=Avenue
TTITLE6=You're in a Bad Way
TTITLE7=Hug My Soul
TTITLE8=Like a Motorway
TTITLE9=California Snow Story
TTITLE10=Duke Duvet
TTITLE11=Join Our Club
TTITLE12=Some Place Else
TTITLE13=Who Do You Think You Are
TTITLE14=I Was Born on Christmas Day
EXTD=
EXTT0=
EXTT1=
EXTT2=
EXTT3=
EXTT4=
EXTT5=
EXTT6=
EXTT7=
EXTT8=
EXTT9=
EXTT10=
EXTT11=
EXTT12=
EXTT13=
EXTT14=
PLAYORDER=
